<svg xmlns="http://www.w3.org/2000/svg" width="1002" height="204" viewBox="0 0 1002 204" fill="none">
  <rect x="0" y="0" width="1002" height="204" rx="28" fill="#2F2633"/>
  <g transform="translate(56 56.00) scale(0.92000)">
    <defs>
      <mask id="crescent-2" maskUnits="userSpaceOnUse" x="0" y="0" width="100" height="100">
        <rect x="0" y="0" width="100" height="100" fill="black"/>
        <circle cx="49" cy="52" r="30" fill="white"/>
        <circle cx="64" cy="45" r="27" fill="black"/>
      </mask>
    </defs>
    <circle cx="50" cy="50" r="40" fill="none" stroke="#F4EFE7" stroke-width="3" opacity="0.4"/>
    <rect x="0" y="0" width="100" height="100" fill="#F4EFE7" mask="url(#crescent-2)"/></g>
  <g transform="translate(182.00 63.00)" fill="#F4EFE7"><g transform="translate(-5.400 76.560) scale(0.12000 -0.12000)"><path transform="translate(0 0)" d="M192 81Q192 52 198 37Q204 22 223.5 17Q243 12 281 12Q283 12 283 6Q283 0 281 0Q257 0 228 1Q199 2 164 2Q131 2 101.5 1Q72 0 48 0Q45 0 45 6Q45 12 48 12Q86 12 105.5 17Q125 22 131.5 37Q138 52 138 81L138 544Q138 573 131.5 587.5Q125 602 105.5 607.5Q86 613 48 613Q45 613 45 619Q45 625 48 625Q72 625 101.5 623.5Q131 622 164 622Q199 622 228.5 623.5Q258 625 281 625Q283 625 283 619Q283 613 281 613Q243 613 224 607Q205 601 198.5 586Q192 571 192 542Z"/><path transform="translate(330 0)" d="M315 0Q312 0 312 6Q312 12 315 12Q356 12 368 25Q380 38 380 81L380 248Q380 309 357 337Q334 365 285 365Q247 365 207.5 340Q168 315 139 271L135 283Q182 345 225 372Q268 399 312 399Q367 399 397 369.5Q427 340 427 278L427 81Q427 38 438.5 25Q450 12 492 12Q495 12 495 6Q495 0 492 0Q475 0 452 1Q429 2 404 2Q379 2 355.5 1Q332 0 315 0ZM46 0Q43 0 43 6Q43 12 46 12Q87 12 99 25Q111 38 111 81L111 281Q111 315 103 330.5Q95 346 75 346Q65 346 51 342Q37 338 19 331Q15 330 12.5 335Q10 340 14 342L125 394Q127 395 130 395Q137 395 147.5 374.5Q158 354 158 315L158 81Q158 38 169.5 25Q181 12 223 12Q226 12 226 6Q226 0 223 0Q206 0 183 1Q160 2 135 2Q110 2 86.5 1Q63 0 46 0Z"/><path transform="translate(845 0)" d="M315 0Q312 0 312 6Q312 12 315 12Q356 12 368 25Q380 38 380 81L380 248Q380 309 357 337Q334 365 285 365Q247 365 207.5 340Q168 315 139 271L135 283Q182 345 225 372Q268 399 312 399Q367 399 397 369.5Q427 340 427 278L427 81Q427 38 438.5 25Q450 12 492 12Q495 12 495 6Q495 0 492 0Q475 0 452 1Q429 2 404 2Q379 2 355.5 1Q332 0 315 0ZM46 0Q43 0 43 6Q43 12 46 12Q87 12 99 25Q111 38 111 81L111 281Q111 315 103 330.5Q95 346 75 346Q65 346 51 342Q37 338 19 331Q15 330 12.5 335Q10 340 14 342L125 394Q127 395 130 395Q137 395 147.5 374.5Q158 354 158 315L158 81Q158 38 169.5 25Q181 12 223 12Q226 12 226 6Q226 0 223 0Q206 0 183 1Q160 2 135 2Q110 2 86.5 1Q63 0 46 0Z"/><path transform="translate(1360 0)" d="M215 -12Q156 -12 116.5 15.5Q77 43 57 87Q37 131 37 180Q37 241 65 289.5Q93 338 140.5 366.5Q188 395 244 395Q301 395 329 364Q357 333 357 281Q357 268 354.5 262Q352 256 345 256L298 256Q303 318 278.5 346.5Q254 375 212 375Q156 375 125 332.5Q94 290 94 216Q94 160 112 115.5Q130 71 165 45.5Q200 20 250 20Q285 20 307.5 30.5Q330 41 351 54Q353 56 356.5 51.5Q360 47 358 44Q323 14 287.5 1Q252 -12 215 -12ZM81 255L80 267L308 271L308 256Z"/><path transform="translate(1765 0)" d="M139 271L135 281Q172 327 195.5 351.5Q219 376 236 385.5Q253 395 269 395Q290 395 310 384Q330 373 330 357Q330 347 322.5 339Q315 331 301 331Q289 331 280.5 338Q272 345 262 351.5Q252 358 235 358Q226 358 215.5 352.5Q205 347 187.5 328.5Q170 310 139 271ZM46 0Q43 0 43 6Q43 12 46 12Q87 12 99 25Q111 38 111 81L111 281Q111 315 103 330.5Q95 346 75 346Q65 346 51 342Q37 338 19 331Q15 330 12.5 335Q10 340 14 342L125 394Q127 395 130 395Q137 395 147.5 374.5Q158 354 158 315L158 81Q158 52 165 37Q172 22 193.5 17Q215 12 258 12Q261 12 261 6Q261 0 258 0Q234 0 202 1Q170 2 135 2Q110 2 86.5 1Q63 0 46 0Z"/><path transform="translate(2359 0)" d="M200 287L209 305L468 305L475 287ZM694 12Q698 12 698 6Q698 0 694 0Q666 0 636.5 2Q607 4 580 4Q549 4 526.5 2Q504 0 477 0Q473 0 473 6Q473 12 477 12Q533 12 547.5 27Q562 42 543 84L317 570L336 587L143 123Q118 62 139 37Q160 12 228 12Q233 12 233 6Q233 0 228 0Q198 0 173 2Q148 4 110 4Q75 4 53.5 2Q32 0 2 0Q-2 0 -2 6Q-2 12 2 12Q29 12 49 22Q69 32 86.5 58Q104 84 124 132L333 635Q335 638 339.5 638Q344 638 345 635L577 137Q600 87 618 59.5Q636 32 654 22Q672 12 694 12Z"/><path transform="translate(3039 0)" d="M439 1L302 303Q282 348 269 361Q256 374 237 374Q235 374 235 380Q235 386 237 386Q252 386 268.5 385Q285 384 299 384Q332 384 356 385Q380 386 400 386Q403 386 403 380Q403 374 400 374Q369 374 350 366.5Q331 359 343 335L473 50L450 22L568 311Q582 346 565 360Q548 374 492 374Q490 374 490 380Q490 386 492 386Q516 386 537.5 385Q559 384 593 384Q614 384 627 385Q640 386 658 386Q661 386 661 380Q661 374 658 374Q635 374 619 360Q603 346 586 305L461 1Q459 -3 450 -3Q441 -3 439 1ZM205 1L68 303Q48 348 35 361Q22 374 4 374Q1 374 1 380Q1 386 4 386Q18 386 34.5 385Q51 384 65 384Q96 384 120 385Q144 386 166 386Q169 386 169 380Q169 374 166 374Q133 374 116.5 366Q100 358 110 335L240 50L216 22L325 285L339 271L227 1Q226 -3 216.5 -3Q207 -3 205 1Z"/><path transform="translate(3694 0)" d="M313 -6Q309 -8 305 -8Q293 -8 283 13Q273 34 273 74L273 267Q273 329 253.5 353Q234 377 205 377Q180 377 163.5 365.5Q147 354 138.5 337Q130 320 126 305Q124 295 119 281.5Q114 268 94 268Q79 268 71.5 277Q64 286 64 296Q64 313 82 330.5Q100 348 127.5 363Q155 378 185 387Q215 396 240 396Q281 396 300 369.5Q319 343 319 297L319 108Q319 72 327.5 55.5Q336 39 357 39Q376 39 412 54Q417 56 419 50.5Q421 45 416 43ZM136 -7Q99 -7 79.5 13.5Q60 34 60 61Q60 78 68.5 94Q77 110 98.5 125Q120 140 158 154L283 201L285 188L167 143Q146 135 135 125.5Q124 116 120 105.5Q116 95 116 84Q116 62 130.5 44Q145 26 173 26Q184 26 196 29.5Q208 33 225 43L292 82L294 70L219 23Q194 7 175 0Q156 -7 136 -7Z"/><path transform="translate(4113 0)" d="M139 271L135 281Q172 327 195.5 351.5Q219 376 236 385.5Q253 395 269 395Q290 395 310 384Q330 373 330 357Q330 347 322.5 339Q315 331 301 331Q289 331 280.5 338Q272 345 262 351.5Q252 358 235 358Q226 358 215.5 352.5Q205 347 187.5 328.5Q170 310 139 271ZM46 0Q43 0 43 6Q43 12 46 12Q87 12 99 25Q111 38 111 81L111 281Q111 315 103 330.5Q95 346 75 346Q65 346 51 342Q37 338 19 331Q15 330 12.5 335Q10 340 14 342L125 394Q127 395 130 395Q137 395 147.5 374.5Q158 354 158 315L158 81Q158 52 165 37Q172 22 193.5 17Q215 12 258 12Q261 12 261 6Q261 0 258 0Q234 0 202 1Q170 2 135 2Q110 2 86.5 1Q63 0 46 0Z"/><path transform="translate(4461 0)" d="M215 -12Q156 -12 116.5 15.5Q77 43 57 87Q37 131 37 180Q37 241 65 289.5Q93 338 140.5 366.5Q188 395 244 395Q301 395 329 364Q357 333 357 281Q357 268 354.5 262Q352 256 345 256L298 256Q303 318 278.5 346.5Q254 375 212 375Q156 375 125 332.5Q94 290 94 216Q94 160 112 115.5Q130 71 165 45.5Q200 20 250 20Q285 20 307.5 30.5Q330 41 351 54Q353 56 356.5 51.5Q360 47 358 44Q323 14 287.5 1Q252 -12 215 -12ZM81 255L80 267L308 271L308 256Z"/><path transform="translate(4866 0)" d="M315 0Q312 0 312 6Q312 12 315 12Q356 12 368 25Q380 38 380 81L380 248Q380 309 357 337Q334 365 285 365Q247 365 207.5 340Q168 315 139 271L135 283Q182 345 225 372Q268 399 312 399Q367 399 397 369.5Q427 340 427 278L427 81Q427 38 438.5 25Q450 12 492 12Q495 12 495 6Q495 0 492 0Q475 0 452 1Q429 2 404 2Q379 2 355.5 1Q332 0 315 0ZM46 0Q43 0 43 6Q43 12 46 12Q87 12 99 25Q111 38 111 81L111 281Q111 315 103 330.5Q95 346 75 346Q65 346 51 342Q37 338 19 331Q15 330 12.5 335Q10 340 14 342L125 394Q127 395 130 395Q137 395 147.5 374.5Q158 354 158 315L158 81Q158 38 169.5 25Q181 12 223 12Q226 12 226 6Q226 0 223 0Q206 0 183 1Q160 2 135 2Q110 2 86.5 1Q63 0 46 0Z"/><path transform="translate(5381 0)" d="M215 -12Q156 -12 116.5 15.5Q77 43 57 87Q37 131 37 180Q37 241 65 289.5Q93 338 140.5 366.5Q188 395 244 395Q301 395 329 364Q357 333 357 281Q357 268 354.5 262Q352 256 345 256L298 256Q303 318 278.5 346.5Q254 375 212 375Q156 375 125 332.5Q94 290 94 216Q94 160 112 115.5Q130 71 165 45.5Q200 20 250 20Q285 20 307.5 30.5Q330 41 351 54Q353 56 356.5 51.5Q360 47 358 44Q323 14 287.5 1Q252 -12 215 -12ZM81 255L80 267L308 271L308 256Z"/><path transform="translate(5786 0)" d="M96 322Q96 295 109.5 276.5Q123 258 144.5 245.5Q166 233 189 221Q215 209 238 194.5Q261 180 276 160Q291 140 291 108Q291 76 275 49Q259 22 227.5 5.5Q196 -11 151 -11Q127 -11 104 -4.5Q81 2 57 20Q55 22 53 25Q51 28 51 32L49 104Q49 107 54.5 107.5Q60 108 61 105Q74 71 91.5 49.5Q109 28 131 18Q153 8 180 8Q215 8 233.5 24.5Q252 41 250 74Q249 103 235 121Q221 139 200 151Q179 163 156 174Q131 186 108.5 199.5Q86 213 71.5 234Q57 255 57 288Q57 326 77 350.5Q97 375 127.5 387Q158 399 191 399Q209 399 227 395.5Q245 392 262 384Q271 380 271 373Q271 358 270 341Q269 324 269 304Q269 302 263 302Q257 302 257 304Q257 327 240.5 344Q224 361 200.5 370Q177 379 154 379Q127 379 111.5 365Q96 351 96 322Z"/><path transform="translate(6118 0)" d="M96 322Q96 295 109.5 276.5Q123 258 144.5 245.5Q166 233 189 221Q215 209 238 194.5Q261 180 276 160Q291 140 291 108Q291 76 275 49Q259 22 227.5 5.5Q196 -11 151 -11Q127 -11 104 -4.5Q81 2 57 20Q55 22 53 25Q51 28 51 32L49 104Q49 107 54.5 107.5Q60 108 61 105Q74 71 91.5 49.5Q109 28 131 18Q153 8 180 8Q215 8 233.5 24.5Q252 41 250 74Q249 103 235 121Q221 139 200 151Q179 163 156 174Q131 186 108.5 199.5Q86 213 71.5 234Q57 255 57 288Q57 326 77 350.5Q97 375 127.5 387Q158 399 191 399Q209 399 227 395.5Q245 392 262 384Q271 380 271 373Q271 358 270 341Q269 324 269 304Q269 302 263 302Q257 302 257 304Q257 327 240.5 344Q224 361 200.5 370Q177 379 154 379Q127 379 111.5 365Q96 351 96 322Z"/></g></g>
</svg>